# xmcd
#
# Track frame offsets:
# 150
# 17013
# 27660
# 40407
# 52401
# 68722
# 84083
# 100084
# 112662
# 126972
# 141130
# 154645
# 167884
# 180927
# 194082
# 207145
# 220318
# 235736
# 248367
# 260258
# 274609
# 288730
#
# Disc length: 4010 seconds
#
#
# Revision: 0
# Processed by: cddbd v1.5.2PL0 Copyright (c) Steve Scherf et al.
# Submitted via: FreeRIP 2.942 
#
DISCID=360fa816
DTITLE=Dj Eduardo - Melody Rubi eo Portal Intergalático
DYEAR=2006
DGENRE=Brega Melody
TTITLE0=Melody Rubi RMX
TTITLE1=Melody Dj Wesley
TTITLE2=Melody Super pop
TTITLE3=O Meu Amor
TTITLE4=Quero Você
TTITLE5=Melody do Tranzasom
TTITLE6=Melody do Chico Doido
TTITLE7=Volta Pra Mim
TTITLE8=Fica Comigo
TTITLE9=Melody do Fantástico Tupinambá
TTITLE10=Melody do Tremendo Vacilão
TTITLE11=Melody do TATU 2
TTITLE12=Fantasias
TTITLE13=Fica Comigo
TTITLE14=Amor Proibido
TTITLE15=Melody do Jack Terremoto
TTITLE16=Se Tu Te Vais
TTITLE17=Nova Chama
TTITLE18=Melody do S.Coelho
TTITLE19=Vem Pra Mim
TTITLE20=Melody Sintersom
TTITLE21=Melody do Fabio Para Estrela
EXTD=
EXTT0=
EXTT1=
EXTT2=
EXTT3=
EXTT4=
EXTT5=
EXTT6=
EXTT7=
EXTT8=
EXTT9=
EXTT10=
EXTT11=
EXTT12=
EXTT13=
EXTT14=
EXTT15=
EXTT16=
EXTT17=
EXTT18=
EXTT19=
EXTT20=
EXTT21=
PLAYORDER=
